<?xml version="1.0" encoding="UTF-8"?>
<svg id="Layer_1" data-name="Layer 1" xmlns="http://www.w3.org/2000/svg" viewBox="0 0 1129.04 354.63">
  <defs>
    <style>
      .cls-1 {
        letter-spacing: -.04em;
      }

      .cls-2 {
        font-family: 'Mulish', sans-serif;
        font-size: 57.98px;
        font-variation-settings: 'opsz' 14, 'wght' 600;
        font-weight: 600;
      }

      .cls-2, .cls-3, .cls-4 {
        fill: #0f2231;
      }

      .cls-3 {
        font-family: 'Mulish', sans-serif;
        font-size: 37.22px;
      }

      .cls-4, .cls-5 {
        stroke-width: 0px;
      }

      .cls-5 {
        fill: #ff6333;
      }

      .cls-6 {
        letter-spacing: -.02em;
      }
    </style>
  </defs>
  <g>
    <path class="cls-4" d="M671.03,164.45h-82.9c3,14.9,14.4,22.9,30.5,22.9,11.5,0,22.7-5,28.9-13.8l17.9,13.5c-9.9,15.6-28.9,24.3-48.3,24.3-31.8,0-56.1-22.9-56.1-56.4s25.4-56.2,56.1-56.2,54.5,21.8,54.5,55.2c-.2,3.2-.4,6.6-.6,10.5ZM645.13,145.85c-1.6-14.7-13.1-23.4-27.9-23.4s-25.9,7.1-29.1,23.4h57Z"/>
    <path class="cls-4" d="M795.53,148.65v60h-26.6v-58.2c0-17.2-10.3-26.4-22.2-26.4s-27.2,7.1-27.2,27.7v56.8h-26.6v-107h26.6v17c5.5-13.5,22.2-19.7,33.2-19.7,27.4.1,42.8,18.6,42.8,49.8Z"/>
    <path class="cls-4" d="M902.43,101.65h26.6v107h-26.6v-16.7c-7.1,11.7-21.3,19.5-36.6,19.5-28.6,0-51.5-23.2-51.5-56.4s22-56.2,52.2-56.2c14.7,0,28.9,6.4,36,17.7v-14.9h-.1ZM902.03,155.05c0-18.3-15.1-31.4-30.9-31.4-17.2,0-30.2,14.2-30.2,31.4s13.1,31.6,30.5,31.6c16.4,0,30.6-13.7,30.6-31.6Z"/>
    <path class="cls-4" d="M1066.93,101.65v107h-26.6v-85.9h-45.1v85.9h-26.6v-85.9h-20.4v-21.1h20.4v-1.7c0-30.7,14.7-49.3,44.4-49.3h6.9v24.8h-3.9c-16.3,0-21.1,9.4-20.8,21.3v4.9h71.7ZM1036.23,67.05c0-9.4,8-16.3,17.4-16.3s17.2,6.9,17.2,16.3-7.8,16.3-17.2,16.3-17.4-7.1-17.4-16.3Z"/>
    <path class="cls-4" d="M540.43,58.25c-10.9,38.2-28.4,73.8-51.1,105.6-22.7-31.8-40.2-67.4-51.1-105.6h-29.2c12.4,46.9,33.9,90.4,62.5,128.5,5.7,7.5,11.6,14.8,17.8,21.9,6.2-7.1,12.1-14.4,17.8-21.9,28.6-38.1,50.1-81.6,62.5-128.5h-29.2Z"/>
  </g>
  <text class="cls-2" transform="translate(468.6 289.6)"><tspan x="0" y="0">A CyberArk</tspan><tspan class="cls-1" x="321.53" y="0"> </tspan><tspan x="333.35" y="0">Compa</tspan><tspan class="cls-6" x="535.28" y="0">n</tspan><tspan x="569.31" y="0">y</tspan></text>
  <g>
    <path class="cls-4" d="M671.03,164.45h-82.9c3,14.9,14.4,22.9,30.5,22.9,11.5,0,22.7-5,28.9-13.8l17.9,13.5c-9.9,15.6-28.9,24.3-48.3,24.3-31.8,0-56.1-22.9-56.1-56.4s25.4-56.2,56.1-56.2,54.5,21.8,54.5,55.2c-.2,3.2-.4,6.6-.6,10.5ZM645.13,145.85c-1.6-14.7-13.1-23.4-27.9-23.4s-25.9,7.1-29.1,23.4h57Z"/>
    <path class="cls-4" d="M795.53,148.65v60h-26.6v-58.2c0-17.2-10.3-26.4-22.2-26.4s-27.2,7.1-27.2,27.7v56.8h-26.6v-107h26.6v17c5.5-13.5,22.2-19.7,33.2-19.7,27.4.1,42.8,18.6,42.8,49.8Z"/>
    <path class="cls-4" d="M902.43,101.65h26.6v107h-26.6v-16.7c-7.1,11.7-21.3,19.5-36.6,19.5-28.6,0-51.5-23.2-51.5-56.4s22-56.2,52.2-56.2c14.7,0,28.9,6.4,36,17.7v-14.9h-.1ZM902.03,155.05c0-18.3-15.1-31.4-30.9-31.4-17.2,0-30.2,14.2-30.2,31.4s13.1,31.6,30.5,31.6c16.4,0,30.6-13.7,30.6-31.6Z"/>
    <path class="cls-4" d="M1066.93,101.65v107h-26.6v-85.9h-45.1v85.9h-26.6v-85.9h-20.4v-21.1h20.4v-1.7c0-30.7,14.7-49.3,44.4-49.3h6.9v24.8h-3.9c-16.3,0-21.1,9.4-20.8,21.3v4.9h71.7ZM1036.23,67.05c0-9.4,8-16.3,17.4-16.3s17.2,6.9,17.2,16.3-7.8,16.3-17.2,16.3-17.4-7.1-17.4-16.3Z"/>
    <path class="cls-4" d="M540.43,58.25c-10.9,38.2-28.4,73.8-51.1,105.6-22.7-31.8-40.2-67.4-51.1-105.6h-29.2c12.4,46.9,33.9,90.4,62.5,128.5,5.7,7.5,11.6,14.8,17.8,21.9,6.2-7.1,12.1-14.4,17.8-21.9,28.6-38.1,50.1-81.6,62.5-128.5h-29.2Z"/>
  </g>
  <g>
    <path class="cls-5" d="M248.79,46.87c-.71,1.88-7.87,23.03-11.75,31.73h61.11c-21.74,58.87-52.76,112.69-92.6,159.93l-13.63,16.1-13.63-16.1c-39.84-47.24-70.86-101.06-92.6-159.93h58.05c-3.88-8.7-11.05-29.85-11.75-31.73H35.39c31.96,86.49,77.56,165.57,136.08,234.9l19.98,23.62,19.98-23.62c58.52-69.33,104.11-148.42,136.08-234.9h-98.71Z"/>
    <path class="cls-5" d="M232.81,99.28c-10.58,26.2-24.32,50.76-41.36,72.86-17.04-22.09-30.79-46.65-41.36-72.86h-32.08c15.04,40.66,36.55,77.91,64.04,110.46l9.4,11.16,9.4-11.16c27.5-32.67,49-69.8,64.04-110.46h-32.08Z"/>
  </g>
  <text class="cls-3" transform="translate(1082.29 73)"><tspan x="0" y="0">®</tspan></text>
</svg>